<?xml version="1.0" encoding="utf-8"?>
<svg viewBox="0 0 1440 270" style="transform:rotate(0deg); transition: 0.3s" xmlns="http://www.w3.org/2000/svg">
  <defs>
    <linearGradient id="sw-gradient-0" x1="0" x2="0" y1="1" y2="0">
      <stop stop-color="rgba(33, 7, 179, 1)" offset="0"/>
      <stop stop-color="rgba(140, 0, 255, 1)" offset="1"/>
    </linearGradient>
    <linearGradient id="sw-gradient-1" x1="0" x2="0" y1="1" y2="0">
      <stop stop-color="rgba(33, 7, 179, 1)" offset="0"/>
      <stop stop-color="rgba(140, 0, 255, 1)" offset="1"/>
    </linearGradient>
  </defs>
  <path style="opacity: 1; transform-origin: 3456.1px 136.966px;" fill="url(#sw-gradient-0)" d="M 0.094 271.966 L 48.094 231.466 C 96.094 190.966 192.094 109.966 288.094 73.966 C 384.094 37.966 480.094 46.966 576.094 69.466 C 672.094 91.966 768.094 127.966 864.094 163.966 C 960.094 199.966 1056.094 235.966 1152.094 222.466 C 1248.094 208.966 1344.094 145.966 1440.094 105.466 C 1536.094 64.966 1632.094 46.966 1728.094 46.966 C 1824.094 46.966 1920.094 64.966 2016.094 82.966 C 2112.094 100.966 2208.094 118.966 2304.094 114.466 C 2400.094 109.966 2496.094 82.966 2592.094 69.466 C 2688.094 55.966 2784.094 55.966 2880.094 87.466 C 2976.094 118.966 3072.094 181.966 3168.094 208.966 C 3264.094 235.966 3360.094 226.966 3456.094 226.966 C 3552.094 226.966 3648.094 235.966 3744.094 204.466 C 3840.094 172.966 3936.094 100.966 4032.094 87.466 C 4128.094 73.966 4224.094 118.966 4320.094 154.966 C 4416.094 190.966 4512.094 217.966 4608.094 195.466 C 4704.094 172.966 4800.094 100.966 4896.094 73.966 C 4992.094 46.966 5088.094 64.966 5184.094 78.466 C 5280.094 91.966 5376.094 100.966 5472.094 91.966 C 5568.094 82.966 5664.094 55.966 5760.094 69.466 C 5856.094 82.966 5952.094 136.966 6048.094 141.466 C 6144.094 145.966 6240.094 100.966 6336.094 96.466 C 6432.094 91.966 6528.094 127.966 6624.094 154.966 C 6720.094 181.966 6816.094 199.966 6864.094 208.966 L 6912.094 217.966 L 6912.094 1.966 L 6864.094 1.966 C 6816.094 1.966 6720.094 1.966 6624.094 1.966 C 6528.094 1.966 6432.094 1.966 6336.094 1.966 C 6240.094 1.966 6144.094 1.966 6048.094 1.966 C 5952.094 1.966 5856.094 1.966 5760.094 1.966 C 5664.094 1.966 5568.094 1.966 5472.094 1.966 C 5376.094 1.966 5280.094 1.966 5184.094 1.966 C 5088.094 1.966 4992.094 1.966 4896.094 1.966 C 4800.094 1.966 4704.094 1.966 4608.094 1.966 C 4512.094 1.966 4416.094 1.966 4320.094 1.966 C 4224.094 1.966 4128.094 1.966 4032.094 1.966 C 3936.094 1.966 3840.094 1.966 3744.094 1.966 C 3648.094 1.966 3552.094 1.966 3456.094 1.966 C 3360.094 1.966 3264.094 1.966 3168.094 1.966 C 3072.094 1.966 2976.094 1.966 2880.094 1.966 C 2784.094 1.966 2688.094 1.966 2592.094 1.966 C 2496.094 1.966 2400.094 1.966 2304.094 1.966 C 2208.094 1.966 2112.094 1.966 2016.094 1.966 C 1920.094 1.966 1824.094 1.966 1728.094 1.966 C 1632.094 1.966 1536.094 1.966 1440.094 1.966 C 1344.094 1.966 1248.094 1.966 1152.094 1.966 C 1056.094 1.966 960.094 1.966 864.094 1.966 C 768.094 1.966 672.094 1.966 576.094 1.966 C 480.094 1.966 384.094 1.966 288.094 1.966 C 192.094 1.966 96.094 1.966 48.094 1.966 L 0.094 1.966 L 0.094 271.966 Z"/>
  <path style="opacity: 0.9; transform-origin: 3456.1px 61.176px;" fill="url(#sw-gradient-1)" d="M 0.093 167.965 L 48.093 140.965 C 96.093 113.965 192.093 59.965 288.093 37.465 C 384.093 14.965 480.093 23.965 576.093 50.965 C 672.093 77.965 768.093 122.965 864.093 127.465 C 960.093 131.965 1056.093 95.965 1152.093 77.965 C 1248.093 59.965 1344.093 59.965 1440.093 68.965 C 1536.093 77.965 1632.093 95.965 1728.093 109.465 C 1824.093 122.965 1920.093 131.965 2016.093 145.465 C 2112.093 158.965 2208.093 176.965 2304.093 167.965 C 2400.093 158.965 2496.093 122.965 2592.093 100.465 C 2688.093 77.965 2784.093 68.965 2880.093 86.965 C 2976.093 104.965 3072.093 149.965 3168.093 145.465 C 3264.093 140.965 3360.093 86.965 3456.093 55.465 C 3552.093 23.965 3648.093 14.965 3744.093 10.465 C 3840.093 5.965 3936.093 5.965 4032.093 5.965 C 4128.093 5.965 4224.093 5.965 4320.093 10.465 C 4416.093 14.965 4512.093 23.965 4608.093 28.465 C 4704.093 32.965 4800.093 32.965 4896.093 28.465 C 4992.093 23.965 5088.093 14.965 5184.093 14.965 C 5280.093 14.965 5376.093 23.965 5472.093 59.965 C 5568.093 95.965 5664.093 158.965 5760.093 149.965 C 5856.093 140.965 5952.093 59.965 6048.093 37.465 C 6144.093 14.965 6240.093 50.965 6336.093 73.465 C 6432.093 95.965 6528.093 104.965 6624.093 95.965 C 6720.093 86.965 6816.093 59.965 6864.093 46.465 L 6912.093 32.965 L 6912.093 -48.035 L 6864.093 -48.035 C 6816.093 -48.035 6720.093 -48.035 6624.093 -48.035 C 6528.093 -48.035 6432.093 -48.035 6336.093 -48.035 C 6240.093 -48.035 6144.093 -48.035 6048.093 -48.035 C 5952.093 -48.035 5856.093 -48.035 5760.093 -48.035 C 5664.093 -48.035 5568.093 -48.035 5472.093 -48.035 C 5376.093 -48.035 5280.093 -48.035 5184.093 -48.035 C 5088.093 -48.035 4992.093 -48.035 4896.093 -48.035 C 4800.093 -48.035 4704.093 -48.035 4608.093 -48.035 C 4512.093 -48.035 4416.093 -48.035 4320.093 -48.035 C 4224.093 -48.035 4128.093 -48.035 4032.093 -48.035 C 3936.093 -48.035 3840.093 -48.035 3744.093 -48.035 C 3648.093 -48.035 3552.093 -48.035 3456.093 -48.035 C 3360.093 -48.035 3264.093 -48.035 3168.093 -48.035 C 3072.093 -48.035 2976.093 -48.035 2880.093 -48.035 C 2784.093 -48.035 2688.093 -48.035 2592.093 -48.035 C 2496.093 -48.035 2400.093 -48.035 2304.093 -48.035 C 2208.093 -48.035 2112.093 -48.035 2016.093 -48.035 C 1920.093 -48.035 1824.093 -48.035 1728.093 -48.035 C 1632.093 -48.035 1536.093 -48.035 1440.093 -48.035 C 1344.093 -48.035 1248.093 -48.035 1152.093 -48.035 C 1056.093 -48.035 960.093 -48.035 864.093 -48.035 C 768.093 -48.035 672.093 -48.035 576.093 -48.035 C 480.093 -48.035 384.093 -48.035 288.093 -48.035 C 192.093 -48.035 96.093 -48.035 48.093 -48.035 L 0.093 -48.035 L 0.093 167.965 Z"/>
</svg>