<?xml version="1.0" encoding="utf-8"?>
<svg viewBox="0 0 1440 270" style="transform:rotate(0deg); transition: 0.3s" xmlns="http://www.w3.org/2000/svg">
  <defs>
    <linearGradient id="sw-gradient-0" x1="0" x2="0" y1="1" y2="0">
      <stop stop-color="rgba(33, 7, 179, 1)" offset="0"/>
      <stop stop-color="rgba(140, 0, 255, 1)" offset="1"/>
    </linearGradient>
    <linearGradient id="sw-gradient-1" x1="0" x2="0" y1="1" y2="0">
      <stop stop-color="rgba(33, 7, 179, 1)" offset="0"/>
      <stop stop-color="rgba(140, 0, 255, 1)" offset="1"/>
    </linearGradient>
  </defs>
  <path style="opacity: 1; transform-origin: -2016px 135.249px;" fill="url(#sw-gradient-0)" d="M -5471.997 270.249 L -5423.997 229.749 C -5375.997 189.249 -5279.997 108.249 -5183.997 72.249 C -5087.997 36.249 -4991.997 45.249 -4895.997 67.749 C -4799.997 90.249 -4703.997 126.249 -4607.997 162.249 C -4511.997 198.249 -4415.997 234.249 -4319.997 220.749 C -4223.997 207.249 -4127.997 144.249 -4031.997 103.749 C -3935.997 63.249 -3839.997 45.249 -3743.997 45.249 C -3647.997 45.249 -3551.997 63.249 -3455.997 81.249 C -3359.997 99.249 -3263.997 117.249 -3167.997 112.749 C -3071.997 108.249 -2975.997 81.249 -2879.997 67.749 C -2783.997 54.249 -2687.997 54.249 -2591.997 85.749 C -2495.997 117.249 -2399.997 180.249 -2303.997 207.249 C -2207.997 234.249 -2111.997 225.249 -2015.997 225.249 C -1919.997 225.249 -1823.997 234.249 -1727.997 202.749 C -1631.997 171.249 -1535.997 99.249 -1439.997 85.749 C -1343.997 72.249 -1247.997 117.249 -1151.997 153.249 C -1055.997 189.249 -959.997 216.249 -863.997 193.749 C -767.997 171.249 -671.997 99.249 -575.997 72.249 C -479.997 45.249 -383.997 63.249 -287.997 76.749 C -191.997 90.249 -95.997 99.249 0.003 90.249 C 96.003 81.249 192.003 54.249 288.003 67.749 C 384.003 81.249 480.003 135.249 576.003 139.749 C 672.003 144.249 768.003 99.249 864.003 94.749 C 960.003 90.249 1056.003 126.249 1152.003 153.249 C 1248.003 180.249 1344.003 198.249 1392.003 207.249 L 1440.003 216.249 L 1440.003 0.249 L 1392.003 0.249 C 1344.003 0.249 1248.003 0.249 1152.003 0.249 C 1056.003 0.249 960.003 0.249 864.003 0.249 C 768.003 0.249 672.003 0.249 576.003 0.249 C 480.003 0.249 384.003 0.249 288.003 0.249 C 192.003 0.249 96.003 0.249 0.003 0.249 C -95.997 0.249 -191.997 0.249 -287.997 0.249 C -383.997 0.249 -479.997 0.249 -575.997 0.249 C -671.997 0.249 -767.997 0.249 -863.997 0.249 C -959.997 0.249 -1055.997 0.249 -1151.997 0.249 C -1247.997 0.249 -1343.997 0.249 -1439.997 0.249 C -1535.997 0.249 -1631.997 0.249 -1727.997 0.249 C -1823.997 0.249 -1919.997 0.249 -2015.997 0.249 C -2111.997 0.249 -2207.997 0.249 -2303.997 0.249 C -2399.997 0.249 -2495.997 0.249 -2591.997 0.249 C -2687.997 0.249 -2783.997 0.249 -2879.997 0.249 C -2975.997 0.249 -3071.997 0.249 -3167.997 0.249 C -3263.997 0.249 -3359.997 0.249 -3455.997 0.249 C -3551.997 0.249 -3647.997 0.249 -3743.997 0.249 C -3839.997 0.249 -3935.997 0.249 -4031.997 0.249 C -4127.997 0.249 -4223.997 0.249 -4319.997 0.249 C -4415.997 0.249 -4511.997 0.249 -4607.997 0.249 C -4703.997 0.249 -4799.997 0.249 -4895.997 0.249 C -4991.997 0.249 -5087.997 0.249 -5183.997 0.249 C -5279.997 0.249 -5375.997 0.249 -5423.997 0.249 L -5471.997 0.249 L -5471.997 270.249 Z" transform="matrix(-1, 0, 0, -1, 0, 0)"/>
  <path style="opacity: 0.9; transform-origin: -2016px 211.038px;" fill="url(#sw-gradient-1)" d="M -5471.997 317.827 L -5423.997 290.827 C -5375.997 263.827 -5279.997 209.827 -5183.997 187.327 C -5087.997 164.827 -4991.997 173.827 -4895.997 200.827 C -4799.997 227.827 -4703.997 272.827 -4607.997 277.327 C -4511.997 281.827 -4415.997 245.827 -4319.997 227.827 C -4223.997 209.827 -4127.997 209.827 -4031.997 218.827 C -3935.997 227.827 -3839.997 245.827 -3743.997 259.327 C -3647.997 272.827 -3551.997 281.827 -3455.997 295.327 C -3359.997 308.827 -3263.997 326.827 -3167.997 317.827 C -3071.997 308.827 -2975.997 272.827 -2879.997 250.327 C -2783.997 227.827 -2687.997 218.827 -2591.997 236.827 C -2495.997 254.827 -2399.997 299.827 -2303.997 295.327 C -2207.997 290.827 -2111.997 236.827 -2015.997 205.327 C -1919.997 173.827 -1823.997 164.827 -1727.997 160.327 C -1631.997 155.827 -1535.997 155.827 -1439.997 155.827 C -1343.997 155.827 -1247.997 155.827 -1151.997 160.327 C -1055.997 164.827 -959.997 173.827 -863.997 178.327 C -767.997 182.827 -671.997 182.827 -575.997 178.327 C -479.997 173.827 -383.997 164.827 -287.997 164.827 C -191.997 164.827 -95.997 173.827 0.003 209.827 C 96.003 245.827 192.003 308.827 288.003 299.827 C 384.003 290.827 480.003 209.827 576.003 187.327 C 672.003 164.827 768.003 200.827 864.003 223.327 C 960.003 245.827 1056.003 254.827 1152.003 245.827 C 1248.003 236.827 1344.003 209.827 1392.003 196.327 L 1440.003 182.827 L 1440.003 101.827 L 1392.003 101.827 C 1344.003 101.827 1248.003 101.827 1152.003 101.827 C 1056.003 101.827 960.003 101.827 864.003 101.827 C 768.003 101.827 672.003 101.827 576.003 101.827 C 480.003 101.827 384.003 101.827 288.003 101.827 C 192.003 101.827 96.003 101.827 0.003 101.827 C -95.997 101.827 -191.997 101.827 -287.997 101.827 C -383.997 101.827 -479.997 101.827 -575.997 101.827 C -671.997 101.827 -767.997 101.827 -863.997 101.827 C -959.997 101.827 -1055.997 101.827 -1151.997 101.827 C -1247.997 101.827 -1343.997 101.827 -1439.997 101.827 C -1535.997 101.827 -1631.997 101.827 -1727.997 101.827 C -1823.997 101.827 -1919.997 101.827 -2015.997 101.827 C -2111.997 101.827 -2207.997 101.827 -2303.997 101.827 C -2399.997 101.827 -2495.997 101.827 -2591.997 101.827 C -2687.997 101.827 -2783.997 101.827 -2879.997 101.827 C -2975.997 101.827 -3071.997 101.827 -3167.997 101.827 C -3263.997 101.827 -3359.997 101.827 -3455.997 101.827 C -3551.997 101.827 -3647.997 101.827 -3743.997 101.827 C -3839.997 101.827 -3935.997 101.827 -4031.997 101.827 C -4127.997 101.827 -4223.997 101.827 -4319.997 101.827 C -4415.997 101.827 -4511.997 101.827 -4607.997 101.827 C -4703.997 101.827 -4799.997 101.827 -4895.997 101.827 C -4991.997 101.827 -5087.997 101.827 -5183.997 101.827 C -5279.997 101.827 -5375.997 101.827 -5423.997 101.827 L -5471.997 101.827 L -5471.997 317.827 Z" transform="matrix(-1, 0, 0, -1, 0, 0)"/>
</svg>